<mxfile host="app.diagrams.net" modified="2024-05-14T16:05:40.812Z" agent="Mozilla/5.0 (Windows NT 10.0; Win64; x64) AppleWebKit/537.36 (KHTML, like Gecko) Chrome/124.0.0.0 Safari/537.36 Edg/124.0.0.0" etag="DSYftSPGm4tynsPVd7cv" version="24.4.0" type="device">
  <diagram id="C5RBs43oDa-KdzZeNtuy" name="Page-1">
    <mxGraphModel dx="2087" dy="1124" grid="1" gridSize="10" guides="1" tooltips="1" connect="1" arrows="1" fold="1" page="1" pageScale="1" pageWidth="827" pageHeight="1169" math="0" shadow="0">
      <root>
        <mxCell id="WIyWlLk6GJQsqaUBKTNV-0" />
        <mxCell id="WIyWlLk6GJQsqaUBKTNV-1" parent="WIyWlLk6GJQsqaUBKTNV-0" />
        <mxCell id="zkfFHV4jXpPFQw0GAbJ--0" value="&lt;intefaz&gt;  HealthCalc&#xa;&#xa;&#xa;" style="swimlane;fontStyle=2;align=center;verticalAlign=top;childLayout=stackLayout;horizontal=1;startSize=26;horizontalStack=0;resizeParent=1;resizeLast=0;collapsible=1;marginBottom=0;rounded=0;shadow=0;strokeWidth=1;" parent="WIyWlLk6GJQsqaUBKTNV-1" vertex="1">
          <mxGeometry x="130" y="70" width="504" height="153" as="geometry">
            <mxRectangle x="140" y="70" width="160" height="26" as="alternateBounds" />
          </mxGeometry>
        </mxCell>
        <mxCell id="zkfFHV4jXpPFQw0GAbJ--1" value="+idealWeight (height : int, gender : char) : float &#xa;&#xa;+basalMetabolicRate ( weight : float, height : int, gender : char, age : int ) : float" style="text;align=left;verticalAlign=top;spacingLeft=4;spacingRight=4;overflow=hidden;rotatable=0;points=[[0,0.5],[1,0.5]];portConstraint=eastwest;" parent="zkfFHV4jXpPFQw0GAbJ--0" vertex="1">
          <mxGeometry y="26" width="504" height="60" as="geometry" />
        </mxCell>
        <mxCell id="zkfFHV4jXpPFQw0GAbJ--6" value="HealthCalcImpl" style="swimlane;fontStyle=0;align=center;verticalAlign=top;childLayout=stackLayout;horizontal=1;startSize=20;horizontalStack=0;resizeParent=1;resizeLast=0;collapsible=1;marginBottom=0;rounded=0;shadow=0;strokeWidth=1;" parent="WIyWlLk6GJQsqaUBKTNV-1" vertex="1">
          <mxGeometry x="140" y="290" width="487" height="180" as="geometry">
            <mxRectangle x="130" y="380" width="160" height="26" as="alternateBounds" />
          </mxGeometry>
        </mxCell>
        <mxCell id="zkfFHV4jXpPFQw0GAbJ--7" value="- instance : HealthCalcImpl" style="text;align=left;verticalAlign=top;spacingLeft=4;spacingRight=4;overflow=hidden;rotatable=0;points=[[0,0.5],[1,0.5]];portConstraint=eastwest;" parent="zkfFHV4jXpPFQw0GAbJ--6" vertex="1">
          <mxGeometry y="20" width="487" height="26" as="geometry" />
        </mxCell>
        <mxCell id="zkfFHV4jXpPFQw0GAbJ--9" value="" style="line;html=1;strokeWidth=1;align=left;verticalAlign=middle;spacingTop=-1;spacingLeft=3;spacingRight=3;rotatable=0;labelPosition=right;points=[];portConstraint=eastwest;" parent="zkfFHV4jXpPFQw0GAbJ--6" vertex="1">
          <mxGeometry y="46" width="487" height="8" as="geometry" />
        </mxCell>
        <mxCell id="zkfFHV4jXpPFQw0GAbJ--10" value="- HealthCalcImpl()&#xa;&#xa;+ getInstance() : HealthCalcImpl&#xa;" style="text;align=left;verticalAlign=top;spacingLeft=4;spacingRight=4;overflow=hidden;rotatable=0;points=[[0,0.5],[1,0.5]];portConstraint=eastwest;fontStyle=0" parent="zkfFHV4jXpPFQw0GAbJ--6" vertex="1">
          <mxGeometry y="54" width="487" height="56" as="geometry" />
        </mxCell>
        <mxCell id="zkfFHV4jXpPFQw0GAbJ--11" value="+ idealWeight (height : int, gender : char) :float&#xa;&#xa;+ basalMetabolicRate (weight : float, height : int, gender: char, age : int) : float&#xa;&#xa;" style="text;align=left;verticalAlign=top;spacingLeft=4;spacingRight=4;overflow=hidden;rotatable=0;points=[[0,0.5],[1,0.5]];portConstraint=eastwest;" parent="zkfFHV4jXpPFQw0GAbJ--6" vertex="1">
          <mxGeometry y="110" width="487" height="54" as="geometry" />
        </mxCell>
        <mxCell id="fXgcCaKYvLRKL8QSSEvF-15" value="&lt;interfaz&gt; HealthHospital" style="swimlane;fontStyle=2;align=center;verticalAlign=top;childLayout=stackLayout;horizontal=1;startSize=26;horizontalStack=0;resizeParent=1;resizeLast=0;collapsible=1;marginBottom=0;rounded=0;shadow=0;strokeWidth=1;" vertex="1" parent="WIyWlLk6GJQsqaUBKTNV-1">
          <mxGeometry x="800" y="640" width="360" height="153" as="geometry">
            <mxRectangle x="140" y="70" width="160" height="26" as="alternateBounds" />
          </mxGeometry>
        </mxCell>
        <mxCell id="fXgcCaKYvLRKL8QSSEvF-16" value=" bmr(char genero, int edad, float altura, int peso): double &#xa;&#xa;+ pesoIdeal(char genero, float altura): int " style="text;align=left;verticalAlign=top;spacingLeft=4;spacingRight=4;overflow=hidden;rotatable=0;points=[[0,0.5],[1,0.5]];portConstraint=eastwest;" vertex="1" parent="fXgcCaKYvLRKL8QSSEvF-15">
          <mxGeometry y="26" width="360" height="60" as="geometry" />
        </mxCell>
        <mxCell id="fXgcCaKYvLRKL8QSSEvF-17" value="Adapter" style="swimlane;fontStyle=2;align=center;verticalAlign=top;childLayout=stackLayout;horizontal=1;startSize=26;horizontalStack=0;resizeParent=1;resizeLast=0;collapsible=1;marginBottom=0;rounded=0;shadow=0;strokeWidth=1;" vertex="1" parent="WIyWlLk6GJQsqaUBKTNV-1">
          <mxGeometry x="770" y="313.5" width="360" height="153" as="geometry">
            <mxRectangle x="140" y="70" width="160" height="26" as="alternateBounds" />
          </mxGeometry>
        </mxCell>
        <mxCell id="fXgcCaKYvLRKL8QSSEvF-18" value="- healthCalc: HealthCal&#xa;&#xa;+ bmr(char genero, int edad, float altura, int peso): double &#xa;&#xa;+ pesoIdeal(char genero, float altura): int &#xa;" style="text;align=left;verticalAlign=top;spacingLeft=4;spacingRight=4;overflow=hidden;rotatable=0;points=[[0,0.5],[1,0.5]];portConstraint=eastwest;" vertex="1" parent="fXgcCaKYvLRKL8QSSEvF-17">
          <mxGeometry y="26" width="360" height="104" as="geometry" />
        </mxCell>
        <mxCell id="fXgcCaKYvLRKL8QSSEvF-22" style="edgeStyle=none;rounded=0;orthogonalLoop=1;jettySize=auto;html=1;entryX=0.5;entryY=0;entryDx=0;entryDy=0;" edge="1" parent="WIyWlLk6GJQsqaUBKTNV-1" source="zkfFHV4jXpPFQw0GAbJ--6" target="zkfFHV4jXpPFQw0GAbJ--6">
          <mxGeometry relative="1" as="geometry" />
        </mxCell>
        <mxCell id="fXgcCaKYvLRKL8QSSEvF-25" value="Use" style="endArrow=open;endSize=12;dashed=1;html=1;rounded=0;entryX=0.5;entryY=1;entryDx=0;entryDy=0;exitX=0.5;exitY=0;exitDx=0;exitDy=0;" edge="1" parent="WIyWlLk6GJQsqaUBKTNV-1" source="zkfFHV4jXpPFQw0GAbJ--6" target="zkfFHV4jXpPFQw0GAbJ--0">
          <mxGeometry width="160" relative="1" as="geometry">
            <mxPoint x="600" y="400" as="sourcePoint" />
            <mxPoint x="760" y="400" as="targetPoint" />
          </mxGeometry>
        </mxCell>
        <mxCell id="fXgcCaKYvLRKL8QSSEvF-27" value="name" style="endArrow=block;endFill=1;html=1;edgeStyle=orthogonalEdgeStyle;align=left;verticalAlign=top;rounded=0;entryX=1;entryY=0.5;entryDx=0;entryDy=0;exitX=0;exitY=0.5;exitDx=0;exitDy=0;" edge="1" parent="WIyWlLk6GJQsqaUBKTNV-1" source="fXgcCaKYvLRKL8QSSEvF-18" target="zkfFHV4jXpPFQw0GAbJ--10">
          <mxGeometry x="-1" relative="1" as="geometry">
            <mxPoint x="610" y="520" as="sourcePoint" />
            <mxPoint x="770" y="520" as="targetPoint" />
          </mxGeometry>
        </mxCell>
        <mxCell id="fXgcCaKYvLRKL8QSSEvF-28" value="1" style="edgeLabel;resizable=0;html=1;align=left;verticalAlign=bottom;" connectable="0" vertex="1" parent="fXgcCaKYvLRKL8QSSEvF-27">
          <mxGeometry x="-1" relative="1" as="geometry" />
        </mxCell>
        <mxCell id="fXgcCaKYvLRKL8QSSEvF-29" value="Use" style="endArrow=open;endSize=12;dashed=1;html=1;rounded=0;exitX=0.5;exitY=1;exitDx=0;exitDy=0;entryX=0.5;entryY=0;entryDx=0;entryDy=0;" edge="1" parent="WIyWlLk6GJQsqaUBKTNV-1" source="fXgcCaKYvLRKL8QSSEvF-17" target="fXgcCaKYvLRKL8QSSEvF-15">
          <mxGeometry width="160" relative="1" as="geometry">
            <mxPoint x="910" y="630" as="sourcePoint" />
            <mxPoint x="870" y="480" as="targetPoint" />
          </mxGeometry>
        </mxCell>
        <mxCell id="fXgcCaKYvLRKL8QSSEvF-30" value="&lt;interfaz&gt; HealthStats" style="swimlane;fontStyle=2;align=center;verticalAlign=top;childLayout=stackLayout;horizontal=1;startSize=26;horizontalStack=0;resizeParent=1;resizeLast=0;collapsible=1;marginBottom=0;rounded=0;shadow=0;strokeWidth=1;" vertex="1" parent="WIyWlLk6GJQsqaUBKTNV-1">
          <mxGeometry x="1310" y="80" width="200" height="153" as="geometry">
            <mxRectangle x="140" y="70" width="160" height="26" as="alternateBounds" />
          </mxGeometry>
        </mxCell>
        <mxCell id="fXgcCaKYvLRKL8QSSEvF-32" value="+ alturaMedia() : float&lt;div&gt;+ pesoMedio () : float&lt;/div&gt;&lt;div&gt;+ edadMedia() : float&lt;/div&gt;&lt;div&gt;+ brmMedio() : float&lt;/div&gt;&lt;div&gt;+ numSexoH (): int&lt;/div&gt;&lt;div&gt;+ numSexoM() : int&lt;/div&gt;&lt;div&gt;+ numTotalPacientes() : int&lt;/div&gt;" style="whiteSpace=wrap;html=1;align=left;" vertex="1" parent="fXgcCaKYvLRKL8QSSEvF-30">
          <mxGeometry y="26" width="200" height="124" as="geometry" />
        </mxCell>
        <mxCell id="fXgcCaKYvLRKL8QSSEvF-35" value="Use" style="endArrow=open;endSize=12;dashed=1;html=1;rounded=0;entryX=0.5;entryY=1;entryDx=0;entryDy=0;exitX=0.5;exitY=0;exitDx=0;exitDy=0;" edge="1" parent="WIyWlLk6GJQsqaUBKTNV-1" source="fXgcCaKYvLRKL8QSSEvF-37" target="fXgcCaKYvLRKL8QSSEvF-30">
          <mxGeometry width="160" relative="1" as="geometry">
            <mxPoint x="1190" y="430" as="sourcePoint" />
            <mxPoint x="1350" y="430" as="targetPoint" />
          </mxGeometry>
        </mxCell>
        <mxCell id="fXgcCaKYvLRKL8QSSEvF-37" value=" ProxyCalc" style="swimlane;fontStyle=2;align=center;verticalAlign=top;childLayout=stackLayout;horizontal=1;startSize=26;horizontalStack=0;resizeParent=1;resizeLast=0;collapsible=1;marginBottom=0;rounded=0;shadow=0;strokeWidth=1;" vertex="1" parent="WIyWlLk6GJQsqaUBKTNV-1">
          <mxGeometry x="1250" y="350" width="360" height="250" as="geometry">
            <mxRectangle x="140" y="70" width="160" height="26" as="alternateBounds" />
          </mxGeometry>
        </mxCell>
        <mxCell id="fXgcCaKYvLRKL8QSSEvF-39" value="- calc : HealthHospital" style="whiteSpace=wrap;html=1;align=left;" vertex="1" parent="fXgcCaKYvLRKL8QSSEvF-37">
          <mxGeometry y="26" width="360" height="34" as="geometry" />
        </mxCell>
        <mxCell id="fXgcCaKYvLRKL8QSSEvF-38" value="+ ProxyCalc(calc : HealthHospital)&lt;div&gt;+ alturaMedia() : float&lt;/div&gt;&lt;div&gt;+ pesoMedio() : float&lt;/div&gt;&lt;div&gt;+ edadMedia() :float&lt;/div&gt;&lt;div&gt;+ brmMedio() : float&lt;/div&gt;&lt;div&gt;+ numSexoH(): int&lt;/div&gt;&lt;div&gt;+ numSexoM() :int&lt;/div&gt;&lt;div&gt;+ numTotalPacientes() : int&lt;/div&gt;&lt;div&gt;+ brm (genero : char, edad : int, altura : float, peso : int) : double&lt;/div&gt;&lt;div&gt;+ idealWeight (genero: :char, altura: float):int&lt;/div&gt;" style="whiteSpace=wrap;html=1;align=left;" vertex="1" parent="fXgcCaKYvLRKL8QSSEvF-37">
          <mxGeometry y="60" width="360" height="190" as="geometry" />
        </mxCell>
        <mxCell id="fXgcCaKYvLRKL8QSSEvF-41" style="edgeStyle=none;rounded=0;orthogonalLoop=1;jettySize=auto;html=1;exitX=0.25;exitY=0;exitDx=0;exitDy=0;" edge="1" parent="WIyWlLk6GJQsqaUBKTNV-1" source="fXgcCaKYvLRKL8QSSEvF-37" target="fXgcCaKYvLRKL8QSSEvF-37">
          <mxGeometry relative="1" as="geometry" />
        </mxCell>
        <mxCell id="fXgcCaKYvLRKL8QSSEvF-43" value="" style="endArrow=classic;html=1;rounded=0;exitX=1.014;exitY=0.586;exitDx=0;exitDy=0;exitPerimeter=0;entryX=0;entryY=0;entryDx=0;entryDy=0;" edge="1" parent="WIyWlLk6GJQsqaUBKTNV-1" source="fXgcCaKYvLRKL8QSSEvF-18" target="fXgcCaKYvLRKL8QSSEvF-38">
          <mxGeometry width="50" height="50" relative="1" as="geometry">
            <mxPoint x="1170" y="340" as="sourcePoint" />
            <mxPoint x="1220" y="290" as="targetPoint" />
          </mxGeometry>
        </mxCell>
        <mxCell id="fXgcCaKYvLRKL8QSSEvF-44" value="" style="endArrow=diamondThin;endFill=0;endSize=24;html=1;rounded=0;entryX=-0.007;entryY=0.452;entryDx=0;entryDy=0;entryPerimeter=0;" edge="1" parent="WIyWlLk6GJQsqaUBKTNV-1" source="fXgcCaKYvLRKL8QSSEvF-15" target="fXgcCaKYvLRKL8QSSEvF-38">
          <mxGeometry width="160" relative="1" as="geometry">
            <mxPoint x="1130" y="230" as="sourcePoint" />
            <mxPoint x="1300" y="380" as="targetPoint" />
            <Array as="points">
              <mxPoint x="1110" y="560" />
              <mxPoint x="1170" y="490" />
            </Array>
          </mxGeometry>
        </mxCell>
        <mxCell id="fXgcCaKYvLRKL8QSSEvF-46" value="DecoratorCalc" style="swimlane;fontStyle=2;align=center;verticalAlign=top;childLayout=stackLayout;horizontal=1;startSize=26;horizontalStack=0;resizeParent=1;resizeLast=0;collapsible=1;marginBottom=0;rounded=0;shadow=0;strokeWidth=1;" vertex="1" parent="WIyWlLk6GJQsqaUBKTNV-1">
          <mxGeometry x="810" y="890" width="360" height="153" as="geometry">
            <mxRectangle x="140" y="70" width="160" height="26" as="alternateBounds" />
          </mxGeometry>
        </mxCell>
        <mxCell id="fXgcCaKYvLRKL8QSSEvF-47" value="- calc : HalthHospital" style="text;align=left;verticalAlign=top;spacingLeft=4;spacingRight=4;overflow=hidden;rotatable=0;points=[[0,0.5],[1,0.5]];portConstraint=eastwest;" vertex="1" parent="fXgcCaKYvLRKL8QSSEvF-46">
          <mxGeometry y="26" width="360" height="34" as="geometry" />
        </mxCell>
        <mxCell id="fXgcCaKYvLRKL8QSSEvF-48" value="Text" style="text;html=1;align=center;verticalAlign=middle;resizable=0;points=[];autosize=1;strokeColor=none;fillColor=none;" vertex="1" parent="WIyWlLk6GJQsqaUBKTNV-1">
          <mxGeometry x="845" y="968" width="50" height="30" as="geometry" />
        </mxCell>
        <mxCell id="fXgcCaKYvLRKL8QSSEvF-49" value="+ DecoratorCalc() : HealthHospital&lt;div&gt;+ bmr (género : char, edad : int , altura : float, peso : int) : double&lt;/div&gt;&lt;div&gt;+ idealWeight(genero: char, altura:float): int&lt;/div&gt;" style="whiteSpace=wrap;html=1;align=left;" vertex="1" parent="WIyWlLk6GJQsqaUBKTNV-1">
          <mxGeometry x="810" y="940" width="360" height="110" as="geometry" />
        </mxCell>
        <mxCell id="fXgcCaKYvLRKL8QSSEvF-50" value="Use" style="endArrow=open;endSize=12;dashed=1;html=1;rounded=0;entryX=0.25;entryY=1;entryDx=0;entryDy=0;exitX=0.394;exitY=0.011;exitDx=0;exitDy=0;exitPerimeter=0;" edge="1" parent="WIyWlLk6GJQsqaUBKTNV-1" source="fXgcCaKYvLRKL8QSSEvF-46" target="fXgcCaKYvLRKL8QSSEvF-15">
          <mxGeometry width="160" relative="1" as="geometry">
            <mxPoint x="900" y="890" as="sourcePoint" />
            <mxPoint x="1060" y="940" as="targetPoint" />
          </mxGeometry>
        </mxCell>
        <mxCell id="fXgcCaKYvLRKL8QSSEvF-51" value="" style="endArrow=diamondThin;endFill=1;endSize=24;html=1;rounded=0;entryX=0.549;entryY=-0.021;entryDx=0;entryDy=0;entryPerimeter=0;exitX=0.5;exitY=1;exitDx=0;exitDy=0;" edge="1" parent="WIyWlLk6GJQsqaUBKTNV-1" source="fXgcCaKYvLRKL8QSSEvF-15" target="fXgcCaKYvLRKL8QSSEvF-46">
          <mxGeometry width="160" relative="1" as="geometry">
            <mxPoint x="900" y="730" as="sourcePoint" />
            <mxPoint x="1060" y="730" as="targetPoint" />
          </mxGeometry>
        </mxCell>
        <mxCell id="fXgcCaKYvLRKL8QSSEvF-52" value="CalcEuropea" style="swimlane;fontStyle=2;align=center;verticalAlign=top;childLayout=stackLayout;horizontal=1;startSize=26;horizontalStack=0;resizeParent=1;resizeLast=0;collapsible=1;marginBottom=0;rounded=0;shadow=0;strokeWidth=1;" vertex="1" parent="WIyWlLk6GJQsqaUBKTNV-1">
          <mxGeometry x="1270" y="897" width="360" height="153" as="geometry">
            <mxRectangle x="140" y="70" width="160" height="26" as="alternateBounds" />
          </mxGeometry>
        </mxCell>
        <mxCell id="fXgcCaKYvLRKL8QSSEvF-53" value="+ CalcDecorator() : HealthHospital&#xa;&#xa;+ bmr(genero:char,edad: int, altura : float, peso: int) : double&#xa;&#xa;+ idealWeight(genero : char, altura : float): int" style="text;align=left;verticalAlign=top;spacingLeft=4;spacingRight=4;overflow=hidden;rotatable=0;points=[[0,0.5],[1,0.5]];portConstraint=eastwest;" vertex="1" parent="fXgcCaKYvLRKL8QSSEvF-52">
          <mxGeometry y="26" width="360" height="114" as="geometry" />
        </mxCell>
        <mxCell id="fXgcCaKYvLRKL8QSSEvF-54" value="CalcAmericana" style="swimlane;fontStyle=2;align=center;verticalAlign=top;childLayout=stackLayout;horizontal=1;startSize=26;horizontalStack=0;resizeParent=1;resizeLast=0;collapsible=1;marginBottom=0;rounded=0;shadow=0;strokeWidth=1;" vertex="1" parent="WIyWlLk6GJQsqaUBKTNV-1">
          <mxGeometry x="1270" y="1080" width="360" height="153" as="geometry">
            <mxRectangle x="140" y="70" width="160" height="26" as="alternateBounds" />
          </mxGeometry>
        </mxCell>
        <mxCell id="fXgcCaKYvLRKL8QSSEvF-55" value="+ CalcDecorator() : HealthHospital&#xa;&#xa;+ bmr(genero:char,edad: int, altura : float, peso: int) : double&#xa;&#xa;+ idealWeight(genero : char, altura : float): int" style="text;align=left;verticalAlign=top;spacingLeft=4;spacingRight=4;overflow=hidden;rotatable=0;points=[[0,0.5],[1,0.5]];portConstraint=eastwest;" vertex="1" parent="fXgcCaKYvLRKL8QSSEvF-54">
          <mxGeometry y="26" width="360" height="114" as="geometry" />
        </mxCell>
        <mxCell id="fXgcCaKYvLRKL8QSSEvF-56" value="name" style="endArrow=block;endFill=1;html=1;edgeStyle=orthogonalEdgeStyle;align=left;verticalAlign=top;rounded=0;entryX=0.647;entryY=1.016;entryDx=0;entryDy=0;entryPerimeter=0;exitX=-0.008;exitY=0.451;exitDx=0;exitDy=0;exitPerimeter=0;" edge="1" parent="WIyWlLk6GJQsqaUBKTNV-1" source="fXgcCaKYvLRKL8QSSEvF-55" target="fXgcCaKYvLRKL8QSSEvF-49">
          <mxGeometry x="-1" relative="1" as="geometry">
            <mxPoint x="1260" y="1130" as="sourcePoint" />
            <mxPoint x="1420" y="1130" as="targetPoint" />
          </mxGeometry>
        </mxCell>
        <mxCell id="fXgcCaKYvLRKL8QSSEvF-57" value="1" style="edgeLabel;resizable=0;html=1;align=left;verticalAlign=bottom;" connectable="0" vertex="1" parent="fXgcCaKYvLRKL8QSSEvF-56">
          <mxGeometry x="-1" relative="1" as="geometry" />
        </mxCell>
        <mxCell id="fXgcCaKYvLRKL8QSSEvF-58" value="name" style="endArrow=block;endFill=1;html=1;edgeStyle=orthogonalEdgeStyle;align=left;verticalAlign=top;rounded=0;entryX=1.003;entryY=0.37;entryDx=0;entryDy=0;entryPerimeter=0;exitX=-0.001;exitY=0.679;exitDx=0;exitDy=0;exitPerimeter=0;" edge="1" parent="WIyWlLk6GJQsqaUBKTNV-1" source="fXgcCaKYvLRKL8QSSEvF-53" target="fXgcCaKYvLRKL8QSSEvF-49">
          <mxGeometry x="-1" relative="1" as="geometry">
            <mxPoint x="1294" y="1005" as="sourcePoint" />
            <mxPoint x="1070" y="900" as="targetPoint" />
          </mxGeometry>
        </mxCell>
        <mxCell id="fXgcCaKYvLRKL8QSSEvF-59" value="1" style="edgeLabel;resizable=0;html=1;align=left;verticalAlign=bottom;" connectable="0" vertex="1" parent="fXgcCaKYvLRKL8QSSEvF-58">
          <mxGeometry x="-1" relative="1" as="geometry" />
        </mxCell>
      </root>
    </mxGraphModel>
  </diagram>
</mxfile>
